<?xml version="1.0" encoding="UTF-8" standalone="no"?>
<svg
   xmlns:dc="http://purl.org/dc/elements/1.1/"
   xmlns:cc="http://creativecommons.org/ns#"
   xmlns:rdf="http://www.w3.org/1999/02/22-rdf-syntax-ns#"
   xmlns:svg="http://www.w3.org/2000/svg"
   xmlns="http://www.w3.org/2000/svg"
   viewBox="0 0 306.74667 345.64001"
   height="345.64001"
   width="306.74667"
   xml:space="preserve"
   id="svg2"
   version="1.1"><metadata
     id="metadata8"><rdf:RDF><cc:Work
         rdf:about=""><dc:format>image/svg+xml</dc:format><dc:type
           rdf:resource="http://purl.org/dc/dcmitype/StillImage" /></cc:Work></rdf:RDF></metadata><defs
     id="defs6"><clipPath
       id="clipPath20"
       clipPathUnits="userSpaceOnUse"><path
         id="path18"
         d="M 0,0 H 2300.58 V 2592 H 0 Z" /></clipPath></defs><g
     transform="matrix(1.3333333,0,0,-1.3333333,0,345.64)"
     id="g10"><g
       transform="scale(0.1)"
       id="g12"><g
         id="g14"><g
           clip-path="url(#clipPath20)"
           id="g16"><path
             id="path22"
             style="fill:#3d73c2;fill-opacity:1;fill-rule:nonzero;stroke:none"
             d="m 1311.71,455.852 463.27,-127.282 104.38,60.27 -484.69,874.4 -82.96,-807.388" /><path
             id="path24"
             style="fill:#448dc1;fill-opacity:1;fill-rule:nonzero;stroke:none"
             d="m 779.195,2410.14 -199.047,-114.93 110.325,-97.08 88.722,212.01" /><path
             id="path26"
             style="fill:#4b98c4;fill-opacity:1;fill-rule:nonzero;stroke:none"
             d="M 1046.68,2564.57 779.195,2410.14 v 0 l -88.722,-212.01 489.907,391.92 c -45.46,6.67 -92.63,-1.77 -133.7,-25.48" /><path
             id="path28"
             style="fill:#3e7bbf;fill-opacity:1;fill-rule:nonzero;stroke:none"
             d="m 265.527,1680.1 424.946,518.03 -110.325,97.08 -395.929,-228.58 c 27.695,-129.08 81.308,-386.53 81.308,-386.53" /><path
             id="path30"
             style="fill:#3b70bb;fill-opacity:1;fill-rule:nonzero;stroke:none"
             d="M 2.73828,1873.56 C 99.418,1803.34 265.527,1680.1 265.527,1680.1 l -81.308,386.53 v 0 l -80.606,-46.54 C 49.1445,1988.64 12.5547,1934.52 2.73828,1873.56" /><path
             id="path32"
             style="fill:#385eb4;fill-opacity:1;fill-rule:nonzero;stroke:none"
             d="M 0,1840.63 V 1593.89 L 265.527,1680.1 2.73828,1873.56 C 1,1862.76 0,1851.77 0,1840.63" /><path
             id="path34"
             style="fill:#4895c5;fill-opacity:1;fill-rule:nonzero;stroke:none"
             d="m 1180.38,2590.05 -489.907,-391.92 791.217,-210.47 -122.93,516.37 -104.86,60.54 c -23.04,13.3 -48.01,21.74 -73.52,25.48" /><path
             id="path36"
             style="fill:#57a7cc;fill-opacity:1;fill-rule:nonzero;stroke:none"
             d="m 1481.69,1987.66 254.18,298.64 -377.11,217.73 122.93,-516.37" /><path
             id="path38"
             style="fill:#4288c3;fill-opacity:1;fill-rule:nonzero;stroke:none"
             d="m 1394.67,1263.24 -704.197,934.89 791.217,-210.47 -87.02,-724.42" /><path
             id="path40"
             style="fill:#3e78c2;fill-opacity:1;fill-rule:nonzero;stroke:none"
             d="M 807.844,1000.19 1394.67,1263.24 690.473,2198.13 807.844,1000.19" /><path
             id="path42"
             style="fill:#3c71bf;fill-opacity:1;fill-rule:nonzero;stroke:none"
             d="M 265.527,1680.1 807.844,1000.19 690.473,2198.13 265.527,1680.1" /><path
             id="path44"
             style="fill:#3963b7;fill-opacity:1;fill-rule:nonzero;stroke:none"
             d="m 184.219,1153.97 81.308,526.13 542.317,-679.91 -623.625,153.78" /><path
             id="path46"
             style="fill:#468dc9;fill-opacity:1;fill-rule:nonzero;stroke:none"
             d="m 2056.38,1222.77 -661.71,40.47 459.35,578.74 202.36,-619.21" /><path
             id="path48"
             style="fill:#4590c8;fill-opacity:1;fill-rule:nonzero;stroke:none"
             d="m 1481.69,1987.66 372.33,-145.68 -459.35,-578.74 87.02,724.42" /><path
             id="path50"
             style="fill:#54a3cc;fill-opacity:1;fill-rule:nonzero;stroke:none"
             d="m 1735.87,2286.3 v 0 l -254.18,-298.64 372.32,-145.68 61.9,340.38 -180.04,103.94" /><path
             id="path52"
             style="fill:#61b4d0;fill-opacity:1;fill-rule:nonzero;stroke:none"
             d="m 2196.96,2020.09 -281.05,162.27 -61.9,-340.38 395.86,134.43 c -14.87,17.14 -32.65,31.98 -52.91,43.68" /><path
             id="path54"
             style="fill:#57a5cf;fill-opacity:1;fill-rule:nonzero;stroke:none"
             d="m 1854.01,1841.98 202.37,-619.21 244.2,323.8 v 294.06 c 0,50.64 -18.5,98.64 -50.71,135.78 l -395.86,-134.43" /><path
             id="path56"
             style="fill:#4488c9;fill-opacity:1;fill-rule:nonzero;stroke:none"
             d="m 2056.38,1222.77 c 0,0 -85.61,-631.93 -109.6,-795.008 l 250.18,144.449 c 64.12,37.019 103.62,105.43 103.62,179.461 v 305.178 l -244.2,165.92" /><path
             id="path58"
             style="fill:#529fcd;fill-opacity:1;fill-rule:nonzero;stroke:none"
             d="m 2300.58,1546.57 -244.2,-323.8 244.2,-165.92 v 489.72" /><path
             id="path60"
             style="fill:#3f80c7;fill-opacity:1;fill-rule:nonzero;stroke:none"
             d="m 1879.36,388.84 -484.69,874.4 661.71,-40.47 -109.6,-795.008 -67.42,-38.922" /><path
             id="path62"
             style="fill:#3c6ebf;fill-opacity:1;fill-rule:nonzero;stroke:none"
             d="M 807.844,1000.19 1311.71,455.852 1394.67,1263.24 807.844,1000.19" /><path
             id="path64"
             style="fill:#3a61b6;fill-opacity:1;fill-rule:nonzero;stroke:none"
             d="m 888.785,427.762 422.925,28.09 -503.866,544.338 80.941,-572.428" /><path
             id="path66"
             style="fill:#365ab1;fill-opacity:1;fill-rule:nonzero;stroke:none"
             d="M 536.684,322.18 888.785,427.762 807.844,1000.19 184.219,1153.97 410.352,395.109 536.684,322.18" /><path
             id="path68"
             style="fill:#3551ab;fill-opacity:1;fill-rule:nonzero;stroke:none"
             d="M 921.379,100.082 888.785,427.762 536.684,322.18 921.379,100.082" /><path
             id="path70"
             style="fill:#3b64b8;fill-opacity:1;fill-rule:nonzero;stroke:none"
             d="M 1321.99,67.0391 1311.71,455.852 1774.98,328.57 1321.99,67.0391" /><path
             id="path72"
             style="fill:#395eb4;fill-opacity:1;fill-rule:nonzero;stroke:none"
             d="m 1189.23,3.69141 c 22.42,4.28906 44.3,12.27739 64.67,24.03909 L 1321.99,67.0391 1311.71,455.852 888.785,427.762 1189.23,3.69141" /><path
             id="path74"
             style="fill:#3753ad;fill-opacity:1;fill-rule:nonzero;stroke:none"
             d="m 921.379,100.082 v 0 L 1046.68,27.7305 C 1090.42,2.48047 1141.08,-5.51953 1189.23,3.69141 1189.22,3.69922 895.82,417.832 888.785,427.762 c -7.035,9.937 32.594,-327.68 32.594,-327.68" /><path
             id="path76"
             style="fill:#375bb2;fill-opacity:1;fill-rule:nonzero;stroke:none"
             d="M 184.219,1153.97 265.527,1680.1 0,1593.89 v -386.3 l 184.219,-53.62" /><path
             id="path78"
             style="fill:#344ea8;fill-opacity:1;fill-rule:nonzero;stroke:none"
             d="M 103.613,572.211 410.352,395.109 184.219,1153.97 0,1207.59 V 751.672 C 0,677.641 39.4961,609.23 103.613,572.211" /><path
             id="path80"
             style="fill:#ffffff;fill-opacity:1;fill-rule:nonzero;stroke:none"
             d="m 751.207,634.66 v 169.91 c 0,38.289 -24.269,51.239 -46.387,51.239 -22.121,0 -46.925,-12.95 -46.925,-51.239 V 634.66 H 587.77 v 281.02 h 68.503 v -25.891 c 18.34,19.422 44.231,29.133 70.118,29.133 28.058,0 50.703,-9.16 66.347,-24.813 22.657,-22.648 28.598,-49.078 28.598,-79.828 V 634.66 h -70.129" /><path
             id="path82"
             style="fill:#ffffff;fill-opacity:1;fill-rule:nonzero;stroke:none"
             d="m 1019.85,831.531 c -7.56,16.731 -23.194,29.129 -46.932,29.129 -23.734,0 -39.375,-12.398 -46.926,-29.129 -4.316,-10.242 -5.937,-17.789 -6.476,-30.191 h 106.794 c -0.53,12.402 -2.15,19.949 -6.46,30.191 z M 919.516,753.332 c 0,-36.141 22.121,-62.582 61.496,-62.582 30.738,0 45.848,8.629 63.638,26.441 l 42.62,-41.543 c -28.59,-28.589 -56.09,-44.226 -106.805,-44.226 -66.336,0 -129.992,30.207 -129.992,144.019 0,91.7 49.629,143.481 122.445,143.481 78.212,0 122.442,-57.172 122.442,-134.313 V 753.332 H 919.516" /><path
             id="path84"
             style="fill:#ffffff;fill-opacity:1;fill-rule:nonzero;stroke:none"
             d="m 1267.45,843.41 c -8.1,8.082 -18.88,12.399 -32.91,12.399 -14.02,0 -24.28,-4.317 -32.36,-12.399 -14.57,-14.57 -16.19,-38.84 -16.19,-67.969 0,-29.121 1.62,-53.949 16.19,-68.5 8.08,-8.089 18.34,-12.41 32.36,-12.41 14.03,0 24.81,4.321 32.91,12.41 14.55,14.551 16.17,39.379 16.17,68.5 0,29.129 -1.62,53.399 -16.17,67.969 z m 54.47,-177.461 c -17.26,-18.34 -45.84,-34.527 -87.38,-34.527 -41.54,0 -69.59,16.187 -86.84,34.527 -25.35,26.422 -31.83,58.25 -31.83,109.492 0,50.7 6.48,82.528 31.83,108.957 17.25,18.344 45.3,34.524 86.84,34.524 41.54,0 70.12,-16.18 87.38,-34.524 25.36,-26.429 31.82,-58.257 31.82,-108.957 0,-51.242 -6.46,-83.07 -31.82,-109.492" /><path
             id="path86"
             style="fill:#ffffff;fill-opacity:1;fill-rule:nonzero;stroke:none"
             d="m 1502.1,873.609 c -63.65,0 -73.36,-55.019 -73.36,-108.949 0,-53.949 9.71,-108.969 73.36,-108.969 63.65,0 73.36,55.02 73.36,108.969 0,53.93 -9.71,108.949 -73.36,108.949 z m 67.42,-219.539 c -13.47,-13.468 -36.13,-22.648 -63.65,-22.648 -29.67,0 -53.93,6.476 -77.13,36.68 V 634.66 h -27.5 v 384.05 h 27.5 V 861.199 c 23.2,30.223 47.46,36.68 77.13,36.68 27.52,0 50.18,-9.16 63.65,-22.66 26.43,-26.418 33.44,-69.571 33.44,-110.559 0,-41 -7.01,-84.148 -33.44,-110.59" /><path
             id="path88"
             style="fill:#ffffff;fill-opacity:1;fill-rule:nonzero;stroke:none"
             d="m 1761.03,873.609 c -63.66,0 -73.36,-55.019 -73.36,-108.949 0,-53.949 9.7,-108.969 73.36,-108.969 63.65,0 73.36,55.02 73.36,108.969 0,53.93 -9.71,108.949 -73.36,108.949 z m 67.42,-219.539 c -13.48,-13.468 -36.13,-22.648 -63.65,-22.648 -29.67,0 -53.93,6.476 -77.13,36.68 v -157.5 h -27.5 v 384.046 h 27.5 v -33.449 c 23.2,30.223 47.46,36.68 77.13,36.68 27.52,0 50.17,-9.16 63.65,-22.66 26.42,-26.418 33.44,-69.571 33.44,-110.559 0,-41 -7.02,-84.148 -33.44,-110.59" /><path
             id="path90"
             style="fill:#ffffff;fill-opacity:1;fill-rule:nonzero;stroke:none"
             d="m 2062.55,851.492 c -14.55,14.567 -32.89,22.117 -53.93,22.117 -21.05,0 -39.37,-7.55 -53.94,-22.117 -21.58,-21.57 -23.2,-56.64 -23.2,-86.832 0,-30.219 1.62,-65.281 23.2,-86.851 14.57,-14.559 32.89,-22.118 53.94,-22.118 21.04,0 39.38,7.559 53.93,22.118 21.58,21.57 23.2,56.632 23.2,86.851 0,30.192 -1.62,65.262 -23.2,86.832 z m 18.34,-191.48 c -18.87,-18.883 -42.6,-28.59 -72.27,-28.59 -29.14,0 -53.41,9.707 -72.28,28.59 -27.52,27.508 -32.36,67.418 -32.36,104.648 0,37.211 4.84,77.129 32.36,104.641 18.87,18.871 43.14,28.578 72.28,28.578 29.67,0 53.4,-9.707 72.27,-28.578 27.52,-27.512 32.36,-67.43 32.36,-104.641 0,-37.23 -4.84,-77.14 -32.36,-104.648" /></g></g></g></g></svg>