<?xml version="1.0" encoding="UTF-8" standalone="no"?>
<svg
   xmlns:dc="http://purl.org/dc/elements/1.1/"
   xmlns:cc="http://creativecommons.org/ns#"
   xmlns:rdf="http://www.w3.org/1999/02/22-rdf-syntax-ns#"
   xmlns:svg="http://www.w3.org/2000/svg"
   xmlns="http://www.w3.org/2000/svg"
   viewBox="0 0 306.74667 345.64001"
   height="345.64001"
   width="306.74667"
   xml:space="preserve"
   id="svg2"
   version="1.1"><metadata
     id="metadata8"><rdf:RDF><cc:Work
         rdf:about=""><dc:format>image/svg+xml</dc:format><dc:type
           rdf:resource="http://purl.org/dc/dcmitype/StillImage" /></cc:Work></rdf:RDF></metadata><g
     transform="matrix(1.3333333,0,0,-1.3333333,0,345.64)"
     id="g10"><g
       transform="scale(0.1)"
       id="g12"><g
         id="g14"><g
           clip-path="url(#clipPath20)"
           id="g16"><path
             id="path80"
             style="fill:#000;fill-opacity:1;fill-rule:nonzero;stroke:none"
             d="m 751.207,634.66 v 169.91 c 0,38.289 -24.269,51.239 -46.387,51.239 -22.121,0 -46.925,-12.95 -46.925,-51.239 V 634.66 H 587.77 v 281.02 h 68.503 v -25.891 c 18.34,19.422 44.231,29.133 70.118,29.133 28.058,0 50.703,-9.16 66.347,-24.813 22.657,-22.648 28.598,-49.078 28.598,-79.828 V 634.66 h -70.129" /><path
             id="path82"
             style="fill:#000;fill-opacity:1;fill-rule:nonzero;stroke:none"
             d="m 1019.85,831.531 c -7.56,16.731 -23.194,29.129 -46.932,29.129 -23.734,0 -39.375,-12.398 -46.926,-29.129 -4.316,-10.242 -5.937,-17.789 -6.476,-30.191 h 106.794 c -0.53,12.402 -2.15,19.949 -6.46,30.191 z M 919.516,753.332 c 0,-36.141 22.121,-62.582 61.496,-62.582 30.738,0 45.848,8.629 63.638,26.441 l 42.62,-41.543 c -28.59,-28.589 -56.09,-44.226 -106.805,-44.226 -66.336,0 -129.992,30.207 -129.992,144.019 0,91.7 49.629,143.481 122.445,143.481 78.212,0 122.442,-57.172 122.442,-134.313 V 753.332 H 919.516" /><path
             id="path84"
             style="fill:#000;fill-opacity:1;fill-rule:nonzero;stroke:none"
             d="m 1267.45,843.41 c -8.1,8.082 -18.88,12.399 -32.91,12.399 -14.02,0 -24.28,-4.317 -32.36,-12.399 -14.57,-14.57 -16.19,-38.84 -16.19,-67.969 0,-29.121 1.62,-53.949 16.19,-68.5 8.08,-8.089 18.34,-12.41 32.36,-12.41 14.03,0 24.81,4.321 32.91,12.41 14.55,14.551 16.17,39.379 16.17,68.5 0,29.129 -1.62,53.399 -16.17,67.969 z m 54.47,-177.461 c -17.26,-18.34 -45.84,-34.527 -87.38,-34.527 -41.54,0 -69.59,16.187 -86.84,34.527 -25.35,26.422 -31.83,58.25 -31.83,109.492 0,50.7 6.48,82.528 31.83,108.957 17.25,18.344 45.3,34.524 86.84,34.524 41.54,0 70.12,-16.18 87.38,-34.524 25.36,-26.429 31.82,-58.257 31.82,-108.957 0,-51.242 -6.46,-83.07 -31.82,-109.492" /><path
             id="path86"
             style="fill:#000;fill-opacity:1;fill-rule:nonzero;stroke:none"
             d="m 1502.1,873.609 c -63.65,0 -73.36,-55.019 -73.36,-108.949 0,-53.949 9.71,-108.969 73.36,-108.969 63.65,0 73.36,55.02 73.36,108.969 0,53.93 -9.71,108.949 -73.36,108.949 z m 67.42,-219.539 c -13.47,-13.468 -36.13,-22.648 -63.65,-22.648 -29.67,0 -53.93,6.476 -77.13,36.68 V 634.66 h -27.5 v 384.05 h 27.5 V 861.199 c 23.2,30.223 47.46,36.68 77.13,36.68 27.52,0 50.18,-9.16 63.65,-22.66 26.43,-26.418 33.44,-69.571 33.44,-110.559 0,-41 -7.01,-84.148 -33.44,-110.59" /><path
             id="path88"
             style="fill:#000;fill-opacity:1;fill-rule:nonzero;stroke:none"
             d="m 1761.03,873.609 c -63.66,0 -73.36,-55.019 -73.36,-108.949 0,-53.949 9.7,-108.969 73.36,-108.969 63.65,0 73.36,55.02 73.36,108.969 0,53.93 -9.71,108.949 -73.36,108.949 z m 67.42,-219.539 c -13.48,-13.468 -36.13,-22.648 -63.65,-22.648 -29.67,0 -53.93,6.476 -77.13,36.68 v -157.5 h -27.5 v 384.046 h 27.5 v -33.449 c 23.2,30.223 47.46,36.68 77.13,36.68 27.52,0 50.17,-9.16 63.65,-22.66 26.42,-26.418 33.44,-69.571 33.44,-110.559 0,-41 -7.02,-84.148 -33.44,-110.59" /><path
             id="path90"
             style="fill:#000;fill-opacity:1;fill-rule:nonzero;stroke:none"
             d="m 2062.55,851.492 c -14.55,14.567 -32.89,22.117 -53.93,22.117 -21.05,0 -39.37,-7.55 -53.94,-22.117 -21.58,-21.57 -23.2,-56.64 -23.2,-86.832 0,-30.219 1.62,-65.281 23.2,-86.851 14.57,-14.559 32.89,-22.118 53.94,-22.118 21.04,0 39.38,7.559 53.93,22.118 21.58,21.57 23.2,56.632 23.2,86.851 0,30.192 -1.62,65.262 -23.2,86.832 z m 18.34,-191.48 c -18.87,-18.883 -42.6,-28.59 -72.27,-28.59 -29.14,0 -53.41,9.707 -72.28,28.59 -27.52,27.508 -32.36,67.418 -32.36,104.648 0,37.211 4.84,77.129 32.36,104.641 18.87,18.871 43.14,28.578 72.28,28.578 29.67,0 53.4,-9.707 72.27,-28.578 27.52,-27.512 32.36,-67.43 32.36,-104.641 0,-37.23 -4.84,-77.14 -32.36,-104.648" /></g></g></g></g></svg>